# MagicaVoxel @ Ephtracy

# group
o 

# material
mtllib HalfCoverMarker.mtl
usemtl palette

# normals
vn -1 0 0
vn 1 0 0
vn 0 0 1
vn 0 0 -1
vn 0 -1 0
vn 0 1 0

# texcoords
vt 0.970703 0.5
vt 0.974609 0.5
vt 0.978516 0.5
vt 0.982422 0.5

# verts
v -0.4 0.4 0
v -0.4 0.4 -0.1
v -0.4 1.2 0
v -0.4 1.2 -0.1
v -0.3 0.2 0
v -0.3 0.2 -0.1
v -0.3 0.4 0
v -0.3 0.4 -0.1
v -0.2 0.1 0
v -0.2 0.1 -0.1
v -0.2 0.2 0
v -0.2 0.2 -0.1
v -0.1 1.1 0
v -0.1 1.1 -0.1
v -0.1 1.2 0
v -0.1 1.2 -0.1
v 0 0 0
v 0 0 -0.1
v 0 0.1 0
v 0 0.1 -0.1
v 0.2 1 0
v 0.2 1 -0.1
v 0.2 1.1 0
v 0.2 1.1 -0.1
v 0.4 0.6 0
v 0.4 0.6 -0.1
v 0.4 1 0
v 0.4 1 -0.1
v 0.4 1.1 0
v 0.4 1.1 -0.1
v 0.4 1.2 0
v 0.4 1.2 -0.1
v -0.3 0.6 0
v -0.3 0.6 -0.1
v -0.3 1 0
v -0.3 1 -0.1
v -0.3 1.1 0
v -0.3 1.1 -0.1
v -0.3 1.2 0
v -0.3 1.2 -0.1
v -0.1 1 0
v -0.1 1 -0.1
v -0.1 1.1 0
v -0.1 1.1 -0.1
v 0.1 0 0
v 0.1 0 -0.1
v 0.1 0.1 0
v 0.1 0.1 -0.1
v 0.2 1.1 0
v 0.2 1.1 -0.1
v 0.2 1.2 0
v 0.2 1.2 -0.1
v 0.3 0.1 0
v 0.3 0.1 -0.1
v 0.3 0.2 0
v 0.3 0.2 -0.1
v 0.4 0.2 0
v 0.4 0.2 -0.1
v 0.4 0.4 0
v 0.4 0.4 -0.1
v 0.5 0.4 0
v 0.5 0.4 -0.1
v 0.5 1.2 0
v 0.5 1.2 -0.1
v -0.4 0.4 0
v -0.4 1.2 0
v -0.3 0.2 0
v -0.3 0.4 0
v -0.3 0.6 0
v -0.3 1 0
v -0.3 1.1 0
v -0.3 1.2 0
v -0.2 0.1 0
v -0.2 0.2 0
v -0.2 0.4 0
v -0.2 0.5 0
v -0.1 0.2 0
v -0.1 0.3 0
v -0.1 0.5 0
v -0.1 0.6 0
v -0.1 1 0
v -0.1 1.1 0
v -0.1 1.2 0
v 0 0 0
v 0 0.1 0
v 0 0.2 0
v 0 0.3 0
v 0 0.4 0
v 0.1 0 0
v 0.1 0.1 0
v 0.1 0.2 0
v 0.1 0.4 0
v 0.1 0.5 0
v 0.2 0.5 0
v 0.2 0.6 0
v 0.2 1 0
v 0.2 1.1 0
v 0.2 1.2 0
v 0.3 0.1 0
v 0.3 0.2 0
v 0.3 0.4 0
v 0.4 0.2 0
v 0.4 0.4 0
v 0.4 0.6 0
v 0.4 1 0
v 0.4 1.1 0
v 0.4 1.2 0
v 0.5 0.4 0
v 0.5 1.2 0
v -0.4 0.4 -0.1
v -0.4 1.2 -0.1
v -0.3 0.2 -0.1
v -0.3 0.4 -0.1
v -0.3 0.6 -0.1
v -0.3 1 -0.1
v -0.3 1.1 -0.1
v -0.3 1.2 -0.1
v -0.2 0.1 -0.1
v -0.2 0.2 -0.1
v -0.2 0.4 -0.1
v -0.2 0.5 -0.1
v -0.1 0.2 -0.1
v -0.1 0.3 -0.1
v -0.1 0.5 -0.1
v -0.1 0.6 -0.1
v -0.1 1 -0.1
v -0.1 1.1 -0.1
v -0.1 1.2 -0.1
v 0 0 -0.1
v 0 0.1 -0.1
v 0 0.2 -0.1
v 0 0.3 -0.1
v 0 0.4 -0.1
v 0.1 0 -0.1
v 0.1 0.1 -0.1
v 0.1 0.2 -0.1
v 0.1 0.4 -0.1
v 0.1 0.5 -0.1
v 0.2 0.5 -0.1
v 0.2 0.6 -0.1
v 0.2 1 -0.1
v 0.2 1.1 -0.1
v 0.2 1.2 -0.1
v 0.3 0.1 -0.1
v 0.3 0.2 -0.1
v 0.3 0.4 -0.1
v 0.4 0.2 -0.1
v 0.4 0.4 -0.1
v 0.4 0.6 -0.1
v 0.4 1 -0.1
v 0.4 1.1 -0.1
v 0.4 1.2 -0.1
v 0.5 0.4 -0.1
v 0.5 1.2 -0.1
v 0 0 0
v 0.1 0 0
v 0 0 -0.1
v 0.1 0 -0.1
v -0.2 0.1 0
v 0 0.1 0
v 0.1 0.1 0
v 0.3 0.1 0
v -0.2 0.1 -0.1
v 0 0.1 -0.1
v 0.1 0.1 -0.1
v 0.3 0.1 -0.1
v -0.3 0.2 0
v -0.2 0.2 0
v 0.3 0.2 0
v 0.4 0.2 0
v -0.3 0.2 -0.1
v -0.2 0.2 -0.1
v 0.3 0.2 -0.1
v 0.4 0.2 -0.1
v -0.4 0.4 0
v -0.3 0.4 0
v 0.4 0.4 0
v 0.5 0.4 0
v -0.4 0.4 -0.1
v -0.3 0.4 -0.1
v 0.4 0.4 -0.1
v 0.5 0.4 -0.1
v -0.3 1 0
v -0.1 1 0
v 0.2 1 0
v 0.4 1 0
v -0.3 1 -0.1
v -0.1 1 -0.1
v 0.2 1 -0.1
v 0.4 1 -0.1
v -0.1 1.1 0
v 0.2 1.1 0
v -0.1 1.1 -0.1
v 0.2 1.1 -0.1
v -0.3 0.6 0
v -0.1 0.6 0
v 0.2 0.6 0
v 0.4 0.6 0
v -0.3 0.6 -0.1
v -0.1 0.6 -0.1
v 0.2 0.6 -0.1
v 0.4 0.6 -0.1
v -0.3 1.1 0
v -0.1 1.1 0
v 0.2 1.1 0
v 0.4 1.1 0
v -0.3 1.1 -0.1
v -0.1 1.1 -0.1
v 0.2 1.1 -0.1
v 0.4 1.1 -0.1
v -0.4 1.2 0
v -0.3 1.2 0
v -0.1 1.2 0
v 0.2 1.2 0
v 0.4 1.2 0
v 0.5 1.2 0
v -0.4 1.2 -0.1
v -0.3 1.2 -0.1
v -0.1 1.2 -0.1
v 0.2 1.2 -0.1
v 0.4 1.2 -0.1
v 0.5 1.2 -0.1

# faces
f 3/1/1 2/1/1 1/1/1
f 4/1/1 2/1/1 3/1/1
f 7/1/1 6/1/1 5/1/1
f 8/1/1 6/1/1 7/1/1
f 11/1/1 10/1/1 9/1/1
f 12/1/1 10/1/1 11/1/1
f 15/1/1 14/1/1 13/1/1
f 16/1/1 14/1/1 15/1/1
f 19/1/1 18/1/1 17/1/1
f 20/1/1 18/1/1 19/1/1
f 23/1/1 22/1/1 21/1/1
f 24/1/1 22/1/1 23/1/1
f 27/1/1 26/1/1 25/1/1
f 28/1/1 26/1/1 27/1/1
f 31/1/1 30/1/1 29/1/1
f 32/1/1 30/1/1 31/1/1
f 33/1/2 34/1/2 35/1/2
f 35/1/2 34/1/2 36/1/2
f 37/1/2 38/1/2 39/1/2
f 39/1/2 38/1/2 40/1/2
f 41/1/2 42/1/2 43/1/2
f 43/1/2 42/1/2 44/1/2
f 45/1/2 46/1/2 47/1/2
f 47/1/2 46/1/2 48/1/2
f 49/1/2 50/1/2 51/1/2
f 51/1/2 50/1/2 52/1/2
f 53/1/2 54/1/2 55/1/2
f 55/1/2 54/1/2 56/1/2
f 57/1/2 58/1/2 59/1/2
f 59/1/2 58/1/2 60/1/2
f 61/1/2 62/1/2 63/1/2
f 63/1/2 62/1/2 64/1/2
f 68/1/3 66/1/3 65/1/3
f 69/1/3 66/1/3 68/1/3
f 70/1/3 66/1/3 69/1/3
f 71/1/3 66/1/3 70/1/3
f 72/1/3 66/1/3 71/1/3
f 74/1/3 68/1/3 67/1/3
f 75/4/3 69/4/3 68/4/3
f 75/1/3 68/1/3 74/1/3
f 76/4/3 69/4/3 75/4/3
f 77/1/3 74/1/3 73/1/3
f 77/2/3 75/2/3 74/2/3
f 77/2/3 76/2/3 75/2/3
f 78/2/3 76/2/3 77/2/3
f 79/4/3 69/4/3 76/4/3
f 79/2/3 76/2/3 78/2/3
f 80/4/3 69/4/3 79/4/3
f 81/1/3 71/1/3 70/1/3
f 82/1/3 71/1/3 81/1/3
f 85/1/3 77/1/3 73/1/3
f 86/3/3 78/3/3 77/3/3
f 86/1/3 77/1/3 85/1/3
f 87/2/3 80/2/3 79/2/3
f 87/3/3 78/3/3 86/3/3
f 87/2/3 79/2/3 78/2/3
f 88/2/3 80/2/3 87/2/3
f 89/1/3 85/1/3 84/1/3
f 90/3/3 86/3/3 85/3/3
f 90/1/3 85/1/3 89/1/3
f 90/3/3 87/3/3 86/3/3
f 90/3/3 88/3/3 87/3/3
f 91/3/3 88/3/3 90/3/3
f 92/2/3 80/2/3 88/2/3
f 92/3/3 88/3/3 91/3/3
f 93/2/3 80/2/3 92/2/3
f 94/2/3 80/2/3 93/2/3
f 94/3/3 93/3/3 92/3/3
f 94/3/3 92/3/3 91/3/3
f 95/2/3 80/2/3 94/2/3
f 97/1/3 83/1/3 82/1/3
f 98/1/3 83/1/3 97/1/3
f 99/1/3 91/1/3 90/1/3
f 100/3/3 95/3/3 94/3/3
f 100/1/3 91/1/3 99/1/3
f 100/3/3 94/3/3 91/3/3
f 101/3/3 95/3/3 100/3/3
f 102/1/3 101/1/3 100/1/3
f 103/3/3 95/3/3 101/3/3
f 103/1/3 101/1/3 102/1/3
f 104/3/3 95/3/3 103/3/3
f 105/1/3 97/1/3 96/1/3
f 106/1/3 97/1/3 105/1/3
f 108/1/3 104/1/3 103/1/3
f 108/1/3 107/1/3 106/1/3
f 108/1/3 106/1/3 105/1/3
f 108/1/3 105/1/3 104/1/3
f 109/1/3 107/1/3 108/1/3
f 110/1/4 111/1/4 113/1/4
f 113/1/4 111/1/4 114/1/4
f 114/1/4 111/1/4 115/1/4
f 115/1/4 111/1/4 116/1/4
f 116/1/4 111/1/4 117/1/4
f 112/1/4 113/1/4 119/1/4
f 113/4/4 114/4/4 120/4/4
f 119/1/4 113/1/4 120/1/4
f 120/4/4 114/4/4 121/4/4
f 118/1/4 119/1/4 122/1/4
f 119/2/4 120/2/4 122/2/4
f 120/2/4 121/2/4 122/2/4
f 122/2/4 121/2/4 123/2/4
f 121/4/4 114/4/4 124/4/4
f 123/2/4 121/2/4 124/2/4
f 124/4/4 114/4/4 125/4/4
f 115/1/4 116/1/4 126/1/4
f 126/1/4 116/1/4 127/1/4
f 118/1/4 122/1/4 130/1/4
f 122/3/4 123/3/4 131/3/4
f 130/1/4 122/1/4 131/1/4
f 124/2/4 125/2/4 132/2/4
f 131/3/4 123/3/4 132/3/4
f 123/2/4 124/2/4 132/2/4
f 132/2/4 125/2/4 133/2/4
f 129/1/4 130/1/4 134/1/4
f 130/3/4 131/3/4 135/3/4
f 134/1/4 130/1/4 135/1/4
f 131/3/4 132/3/4 135/3/4
f 132/3/4 133/3/4 135/3/4
f 135/3/4 133/3/4 136/3/4
f 133/2/4 125/2/4 137/2/4
f 136/3/4 133/3/4 137/3/4
f 137/2/4 125/2/4 138/2/4
f 138/2/4 125/2/4 139/2/4
f 137/3/4 138/3/4 139/3/4
f 136/3/4 137/3/4 139/3/4
f 139/2/4 125/2/4 140/2/4
f 127/1/4 128/1/4 142/1/4
f 142/1/4 128/1/4 143/1/4
f 135/1/4 136/1/4 144/1/4
f 139/3/4 140/3/4 145/3/4
f 144/1/4 136/1/4 145/1/4
f 136/3/4 139/3/4 145/3/4
f 145/3/4 140/3/4 146/3/4
f 145/1/4 146/1/4 147/1/4
f 146/3/4 140/3/4 148/3/4
f 147/1/4 146/1/4 148/1/4
f 148/3/4 140/3/4 149/3/4
f 141/1/4 142/1/4 150/1/4
f 150/1/4 142/1/4 151/1/4
f 148/1/4 149/1/4 153/1/4
f 151/1/4 152/1/4 153/1/4
f 150/1/4 151/1/4 153/1/4
f 149/1/4 150/1/4 153/1/4
f 153/1/4 152/1/4 154/1/4
f 157/1/5 156/1/5 155/1/5
f 158/1/5 156/1/5 157/1/5
f 163/1/5 160/1/5 159/1/5
f 164/1/5 160/1/5 163/1/5
f 165/1/5 162/1/5 161/1/5
f 166/1/5 162/1/5 165/1/5
f 171/1/5 168/1/5 167/1/5
f 172/1/5 168/1/5 171/1/5
f 173/1/5 170/1/5 169/1/5
f 174/1/5 170/1/5 173/1/5
f 179/1/5 176/1/5 175/1/5
f 180/1/5 176/1/5 179/1/5
f 181/1/5 178/1/5 177/1/5
f 182/1/5 178/1/5 181/1/5
f 187/1/5 184/1/5 183/1/5
f 188/1/5 184/1/5 187/1/5
f 189/1/5 186/1/5 185/1/5
f 190/1/5 186/1/5 189/1/5
f 193/1/5 192/1/5 191/1/5
f 194/1/5 192/1/5 193/1/5
f 195/4/6 196/4/6 199/4/6
f 196/2/6 197/2/6 200/2/6
f 199/4/6 196/4/6 200/4/6
f 197/3/6 198/3/6 201/3/6
f 200/2/6 197/2/6 201/2/6
f 201/3/6 198/3/6 202/3/6
f 203/1/6 204/1/6 207/1/6
f 207/1/6 204/1/6 208/1/6
f 205/1/6 206/1/6 209/1/6
f 209/1/6 206/1/6 210/1/6
f 211/1/6 212/1/6 217/1/6
f 217/1/6 212/1/6 218/1/6
f 213/1/6 214/1/6 219/1/6
f 219/1/6 214/1/6 220/1/6
f 215/1/6 216/1/6 221/1/6
f 221/1/6 216/1/6 222/1/6
