# MagicaVoxel @ Ephtracy

# group
o 

# material
mtllib Granade.mtl
usemtl palette

# normals
vn -1 0 0
vn 1 0 0
vn 0 0 1
vn 0 0 -1
vn 0 -1 0
vn 0 1 0

# texcoords
vt 0.904297 0.5
vt 0.908203 0.5
vt 0.982422 0.5
vt 0.990234 0.5

# verts
v -0.2 -0.2 0.1
v -0.2 -0.2 0
v -0.2 -0.2 -0.1
v -0.2 -0.2 -0.2
v -0.2 -0.1 0.1
v -0.2 -0.1 0
v -0.2 -0.1 -0.1
v -0.2 -0.1 -0.2
v -0.2 0 0.1
v -0.2 0 0
v -0.2 0 -0.1
v -0.2 0 -0.2
v -0.2 0.1 0.1
v -0.2 0.1 0
v -0.2 0.1 -0.1
v -0.2 0.1 -0.2
v -0.2 0.2 0
v -0.2 0.2 -0.1
v -0.1 0.2 0
v -0.1 0.2 -0.1
v -0.1 0.3 0
v -0.1 0.3 -0.1
v 0.1 0.1 0
v 0.1 0.1 -0.1
v 0.1 0.2 0
v 0.1 0.2 -0.1
v 0 0.1 0
v 0 0.1 -0.1
v 0 0.2 0
v 0 0.2 -0.1
v 0.1 -0.2 0.1
v 0.1 -0.2 0
v 0.1 -0.2 -0.1
v 0.1 -0.2 -0.2
v 0.1 -0.1 0.1
v 0.1 -0.1 0
v 0.1 -0.1 -0.1
v 0.1 -0.1 -0.2
v 0.1 0 0.1
v 0.1 0 0
v 0.1 0 -0.1
v 0.1 0 -0.2
v 0.1 0.1 0.1
v 0.1 0.1 0
v 0.1 0.1 -0.1
v 0.1 0.1 -0.2
v 0.1 0.2 0
v 0.1 0.2 -0.1
v 0.1 0.3 0
v 0.1 0.3 -0.1
v 0.2 0 0
v 0.2 0 -0.1
v 0.2 0.2 0
v 0.2 0.2 -0.1
v -0.2 -0.2 0.1
v -0.2 -0.1 0.1
v -0.2 0 0.1
v -0.2 0.1 0.1
v -0.1 -0.2 0.1
v -0.1 -0.1 0.1
v -0.1 0 0.1
v -0.1 0.1 0.1
v 0 -0.2 0.1
v 0 -0.1 0.1
v 0 0 0.1
v 0 0.1 0.1
v 0.1 -0.2 0.1
v 0.1 -0.1 0.1
v 0.1 0 0.1
v 0.1 0.1 0.1
v -0.2 0.1 0
v -0.2 0.2 0
v -0.1 0.1 0
v -0.1 0.2 0
v -0.1 0.3 0
v 0 0.1 0
v 0 0.2 0
v 0.1 0 0
v 0.1 0.1 0
v 0.1 0.2 0
v 0.1 0.3 0
v 0.2 0 0
v 0.2 0.2 0
v -0.2 0.1 -0.1
v -0.2 0.2 -0.1
v -0.1 0.1 -0.1
v -0.1 0.2 -0.1
v -0.1 0.3 -0.1
v 0 0.1 -0.1
v 0 0.2 -0.1
v 0.1 0 -0.1
v 0.1 0.1 -0.1
v 0.1 0.2 -0.1
v 0.1 0.3 -0.1
v 0.2 0 -0.1
v 0.2 0.2 -0.1
v -0.2 -0.2 -0.2
v -0.2 -0.1 -0.2
v -0.2 0 -0.2
v -0.2 0.1 -0.2
v -0.1 -0.2 -0.2
v -0.1 -0.1 -0.2
v -0.1 0 -0.2
v -0.1 0.1 -0.2
v 0 -0.2 -0.2
v 0 -0.1 -0.2
v 0 0 -0.2
v 0 0.1 -0.2
v 0.1 -0.2 -0.2
v 0.1 -0.1 -0.2
v 0.1 0 -0.2
v 0.1 0.1 -0.2
v -0.2 -0.2 0.1
v -0.1 -0.2 0.1
v 0 -0.2 0.1
v 0.1 -0.2 0.1
v -0.2 -0.2 0
v -0.1 -0.2 0
v 0 -0.2 0
v 0.1 -0.2 0
v -0.2 -0.2 -0.1
v -0.1 -0.2 -0.1
v 0 -0.2 -0.1
v 0.1 -0.2 -0.1
v -0.2 -0.2 -0.2
v -0.1 -0.2 -0.2
v 0 -0.2 -0.2
v 0.1 -0.2 -0.2
v 0.1 0 0
v 0.2 0 0
v 0.1 0 -0.1
v 0.2 0 -0.1
v 0 0.2 0
v 0.1 0.2 0
v 0 0.2 -0.1
v 0.1 0.2 -0.1
v -0.2 0.1 0.1
v -0.1 0.1 0.1
v 0 0.1 0.1
v 0.1 0.1 0.1
v -0.2 0.1 0
v -0.1 0.1 0
v 0 0.1 0
v 0.1 0.1 0
v -0.2 0.1 -0.1
v -0.1 0.1 -0.1
v 0 0.1 -0.1
v 0.1 0.1 -0.1
v -0.2 0.1 -0.2
v -0.1 0.1 -0.2
v 0 0.1 -0.2
v 0.1 0.1 -0.2
v -0.2 0.2 0
v -0.1 0.2 0
v 0.1 0.2 0
v 0.2 0.2 0
v -0.2 0.2 -0.1
v -0.1 0.2 -0.1
v 0.1 0.2 -0.1
v 0.2 0.2 -0.1
v -0.1 0.3 0
v 0.1 0.3 0
v -0.1 0.3 -0.1
v 0.1 0.3 -0.1

# faces
f 5/2/1 2/2/1 1/2/1
f 6/1/1 3/1/1 2/1/1
f 6/2/1 2/2/1 5/2/1
f 7/2/1 4/2/1 3/2/1
f 7/1/1 3/1/1 6/1/1
f 8/2/1 4/2/1 7/2/1
f 9/1/1 6/1/1 5/1/1
f 9/1/1 7/1/1 6/1/1
f 9/1/1 8/1/1 7/1/1
f 10/1/1 8/1/1 9/1/1
f 11/1/1 8/1/1 10/1/1
f 12/1/1 8/1/1 11/1/1
f 13/2/1 10/2/1 9/2/1
f 14/1/1 11/1/1 10/1/1
f 14/2/1 10/2/1 13/2/1
f 15/2/1 12/2/1 11/2/1
f 15/1/1 11/1/1 14/1/1
f 16/2/1 12/2/1 15/2/1
f 17/3/1 15/3/1 14/3/1
f 18/3/1 15/3/1 17/3/1
f 21/3/1 20/3/1 19/3/1
f 22/3/1 20/3/1 21/3/1
f 25/3/1 24/3/1 23/3/1
f 26/3/1 24/3/1 25/3/1
f 27/4/2 28/4/2 29/4/2
f 29/4/2 28/4/2 30/4/2
f 31/2/2 32/2/2 35/2/2
f 32/1/2 33/1/2 36/1/2
f 35/2/2 32/2/2 36/2/2
f 33/2/2 34/2/2 37/2/2
f 36/1/2 33/1/2 37/1/2
f 37/2/2 34/2/2 38/2/2
f 35/1/2 36/1/2 39/1/2
f 36/1/2 37/1/2 39/1/2
f 37/1/2 38/1/2 39/1/2
f 39/1/2 38/1/2 40/1/2
f 40/1/2 38/1/2 41/1/2
f 41/1/2 38/1/2 42/1/2
f 39/2/2 40/2/2 43/2/2
f 43/2/2 40/2/2 44/2/2
f 41/2/2 42/2/2 45/2/2
f 45/2/2 42/2/2 46/2/2
f 47/3/2 48/3/2 49/3/2
f 49/3/2 48/3/2 50/3/2
f 51/3/2 52/3/2 53/3/2
f 53/3/2 52/3/2 54/3/2
f 59/2/3 56/2/3 55/2/3
f 60/1/3 57/1/3 56/1/3
f 60/2/3 56/2/3 59/2/3
f 61/2/3 58/2/3 57/2/3
f 61/1/3 57/1/3 60/1/3
f 62/2/3 58/2/3 61/2/3
f 63/1/3 60/1/3 59/1/3
f 63/1/3 61/1/3 60/1/3
f 63/1/3 62/1/3 61/1/3
f 64/1/3 62/1/3 63/1/3
f 65/1/3 62/1/3 64/1/3
f 66/1/3 62/1/3 65/1/3
f 67/2/3 64/2/3 63/2/3
f 68/1/3 65/1/3 64/1/3
f 68/2/3 64/2/3 67/2/3
f 69/2/3 66/2/3 65/2/3
f 69/1/3 65/1/3 68/1/3
f 70/2/3 66/2/3 69/2/3
f 73/3/3 72/3/3 71/3/3
f 74/3/3 72/3/3 73/3/3
f 76/4/3 74/4/3 73/4/3
f 77/3/3 75/3/3 74/3/3
f 77/4/3 74/4/3 76/4/3
f 80/3/3 75/3/3 77/3/3
f 81/3/3 75/3/3 80/3/3
f 82/3/3 79/3/3 78/3/3
f 82/3/3 80/3/3 79/3/3
f 83/3/3 80/3/3 82/3/3
f 84/3/4 85/3/4 86/3/4
f 86/3/4 85/3/4 87/3/4
f 86/4/4 87/4/4 89/4/4
f 87/3/4 88/3/4 90/3/4
f 89/4/4 87/4/4 90/4/4
f 90/3/4 88/3/4 93/3/4
f 93/3/4 88/3/4 94/3/4
f 91/3/4 92/3/4 95/3/4
f 92/3/4 93/3/4 95/3/4
f 95/3/4 93/3/4 96/3/4
f 97/2/4 98/2/4 101/2/4
f 98/1/4 99/1/4 102/1/4
f 101/2/4 98/2/4 102/2/4
f 99/2/4 100/2/4 103/2/4
f 102/1/4 99/1/4 103/1/4
f 103/2/4 100/2/4 104/2/4
f 101/1/4 102/1/4 105/1/4
f 102/1/4 103/1/4 105/1/4
f 103/1/4 104/1/4 105/1/4
f 105/1/4 104/1/4 106/1/4
f 106/1/4 104/1/4 107/1/4
f 107/1/4 104/1/4 108/1/4
f 105/2/4 106/2/4 109/2/4
f 106/1/4 107/1/4 110/1/4
f 109/2/4 106/2/4 110/2/4
f 107/2/4 108/2/4 111/2/4
f 110/1/4 107/1/4 111/1/4
f 111/2/4 108/2/4 112/2/4
f 117/2/5 114/2/5 113/2/5
f 118/1/5 115/1/5 114/1/5
f 118/2/5 114/2/5 117/2/5
f 119/2/5 116/2/5 115/2/5
f 119/1/5 115/1/5 118/1/5
f 120/2/5 116/2/5 119/2/5
f 121/1/5 118/1/5 117/1/5
f 121/1/5 119/1/5 118/1/5
f 121/1/5 120/1/5 119/1/5
f 122/1/5 120/1/5 121/1/5
f 123/1/5 120/1/5 122/1/5
f 124/1/5 120/1/5 123/1/5
f 125/2/5 122/2/5 121/2/5
f 126/1/5 123/1/5 122/1/5
f 126/2/5 122/2/5 125/2/5
f 127/2/5 124/2/5 123/2/5
f 127/1/5 123/1/5 126/1/5
f 128/2/5 124/2/5 127/2/5
f 131/3/5 130/3/5 129/3/5
f 132/3/5 130/3/5 131/3/5
f 135/3/5 134/3/5 133/3/5
f 136/3/5 134/3/5 135/3/5
f 137/2/6 138/2/6 141/2/6
f 138/1/6 139/1/6 142/1/6
f 141/2/6 138/2/6 142/2/6
f 139/2/6 140/2/6 143/2/6
f 142/1/6 139/1/6 143/1/6
f 143/2/6 140/2/6 144/2/6
f 143/1/6 144/1/6 147/1/6
f 147/1/6 144/1/6 148/1/6
f 145/2/6 146/2/6 149/2/6
f 146/1/6 147/1/6 150/1/6
f 149/2/6 146/2/6 150/2/6
f 147/2/6 148/2/6 151/2/6
f 150/1/6 147/1/6 151/1/6
f 151/2/6 148/2/6 152/2/6
f 153/3/6 154/3/6 157/3/6
f 157/3/6 154/3/6 158/3/6
f 155/3/6 156/3/6 159/3/6
f 159/3/6 156/3/6 160/3/6
f 161/3/6 162/3/6 163/3/6
f 163/3/6 162/3/6 164/3/6
