# MagicaVoxel @ Ephtracy

# group
o 

# material
mtllib Rifle.mtl
usemtl palette

# normals
vn -1 0 0
vn 1 0 0
vn 0 0 1
vn 0 0 -1
vn 0 -1 0
vn 0 1 0

# texcoords
vt 0.970703 0.5
vt 0.974609 0.5
vt 0.978516 0.5
vt 0.982422 0.5

# verts
v -2.2 0.2 0
v -2.2 0.2 -0.1
v -2.2 0.3 0
v -2.2 0.3 -0.1
v -1.8 0.1 0
v -1.8 0.1 -0.1
v -1.8 0.2 0.1
v -1.8 0.2 0
v -1.8 0.2 -0.1
v -1.8 0.2 -0.2
v -1.8 0.3 0.1
v -1.8 0.3 0
v -1.8 0.3 -0.1
v -1.8 0.3 -0.2
v -1.8 0.4 0
v -1.8 0.4 -0.1
v -1.7 0.4 0
v -1.7 0.4 -0.1
v -1.7 0.5 0
v -1.7 0.5 -0.1
v -1.1 0.1 0.1
v -1.1 0.1 0
v -1.1 0.1 -0.1
v -1.1 0.1 -0.2
v -1.1 0.2 0.1
v -1.1 0.2 0
v -1.1 0.2 -0.1
v -1.1 0.2 -0.2
v -1 -0.3 0.1
v -1 -0.3 0
v -1 -0.3 -0.1
v -1 -0.3 -0.2
v -1 0 0.1
v -1 0 0
v -1 0 -0.1
v -1 0 -0.2
v -1 0.3 0.1
v -1 0.3 0
v -1 0.3 -0.1
v -1 0.3 -0.2
v -1 0.4 0.1
v -1 0.4 0
v -1 0.4 -0.1
v -1 0.4 -0.2
v -1 0.5 0
v -1 0.5 -0.1
v -0.9 0 0.1
v -0.9 0 0
v -0.9 0 -0.1
v -0.9 0 -0.2
v -0.9 0.1 0.1
v -0.9 0.1 0
v -0.9 0.1 -0.1
v -0.9 0.1 -0.2
v -0.9 0.2 0.2
v -0.9 0.2 0.1
v -0.9 0.3 0.2
v -0.9 0.3 0.1
v -0.0999999 -0.2 0.1
v -0.0999999 -0.2 -0.2
v -0.0999999 -0.1 0.1
v -0.0999999 -0.1 0
v -0.0999999 -0.1 -0.1
v -0.0999999 -0.1 -0.2
v -0.0999999 0.1 0
v -0.0999999 0.1 -0.1
v 0.4 0.3 0.1
v 0.4 0.3 0
v 0.4 0.3 -0.1
v 0.4 0.3 -0.2
v 0.4 0.4 0.1
v 0.4 0.4 0
v 0.4 0.4 -0.1
v 0.4 0.4 -0.2
v 0.5 0.1 0.1
v 0.5 0.1 0
v 0.5 0.1 -0.1
v 0.5 0.1 -0.2
v 0.5 0.2 0.1
v 0.5 0.2 0
v 0.5 0.2 -0.1
v 0.5 0.2 -0.2
v 0.6 0.4 0.1
v 0.6 0.4 0
v 0.6 0.4 -0.1
v 0.6 0.4 -0.2
v 0.6 0.5 0.1
v 0.6 0.5 0
v 0.6 0.5 -0.1
v 0.6 0.5 -0.2
v -1.6 0.4 0
v -1.6 0.4 -0.1
v -1.6 0.5 0
v -1.6 0.5 -0.1
v -0.9 0.4 0
v -0.9 0.4 -0.1
v -0.9 0.5 0
v -0.9 0.5 -0.1
v -0.8 -0.3 0.1
v -0.8 -0.3 0
v -0.8 -0.3 -0.1
v -0.8 -0.3 -0.2
v -0.8 -0.1 0.1
v -0.8 -0.1 0
v -0.8 -0.1 -0.1
v -0.8 -0.1 -0.2
v -0.8 0.2 0.2
v -0.8 0.2 0.1
v -0.8 0.3 0.2
v -0.8 0.3 0.1
v -0.7 -0.1 0.1
v -0.7 -0.1 0
v -0.7 -0.1 -0.1
v -0.7 -0.1 -0.2
v -0.7 0.1 0.1
v -0.7 0.1 0
v -0.7 0.1 -0.1
v -0.7 0.1 -0.2
v -0.4 0.3 0.1
v -0.4 0.3 0
v -0.4 0.3 -0.1
v -0.4 0.3 -0.2
v -0.4 0.4 0.1
v -0.4 0.4 0
v -0.4 0.4 -0.1
v -0.4 0.4 -0.2
v 0.1 -0.2 0.1
v 0.1 -0.2 -0.2
v 0.1 -0.1 0.1
v 0.1 -0.1 0
v 0.1 -0.1 -0.1
v 0.1 -0.1 -0.2
v 0.1 0.1 0
v 0.1 0.1 -0.1
v 0.3 0.1 0.1
v 0.3 0.1 0
v 0.3 0.1 -0.1
v 0.3 0.1 -0.2
v 0.3 0.2 0.1
v 0.3 0.2 0
v 0.3 0.2 -0.1
v 0.3 0.2 -0.2
v 0.3 0.3 0
v 0.3 0.3 -0.1
v 0.3 0.4 0
v 0.3 0.4 -0.1
v 0.7 0.1 0.1
v 0.7 0.1 0
v 0.7 0.1 -0.1
v 0.7 0.1 -0.2
v 0.7 0.5 0.1
v 0.7 0.5 0
v 0.7 0.5 -0.1
v 0.7 0.5 -0.2
v -0.9 0.2 0.2
v -0.9 0.3 0.2
v -0.8 0.2 0.2
v -0.8 0.3 0.2
v -1.8 0.2 0.1
v -1.8 0.3 0.1
v -1.7 0.2 0.1
v -1.7 0.3 0.1
v -1.6 0.2 0.1
v -1.6 0.3 0.1
v -1.5 0.2 0.1
v -1.5 0.3 0.1
v -1.4 0.2 0.1
v -1.4 0.3 0.1
v -1.3 0.2 0.1
v -1.3 0.3 0.1
v -1.2 0.2 0.1
v -1.2 0.3 0.1
v -1.1 0.1 0.1
v -1.1 0.2 0.1
v -1 -0.3 0.1
v -1 0 0.1
v -1 0.3 0.1
v -1 0.4 0.1
v -0.9 0 0.1
v -0.9 0.1 0.1
v -0.9 0.2 0.1
v -0.9 0.3 0.1
v -0.8 -0.3 0.1
v -0.8 -0.1 0.1
v -0.8 0.2 0.1
v -0.8 0.3 0.1
v -0.7 -0.1 0.1
v -0.7 0.1 0.1
v -0.6 0.2 0.1
v -0.6 0.3 0.1
v -0.4 0.3 0.1
v -0.4 0.4 0.1
v -0.0999999 -0.2 0.1
v -0.0999999 -0.1 0.1
v 0.1 -0.2 0.1
v 0.1 -0.1 0.1
v 0.3 0.1 0.1
v 0.3 0.2 0.1
v 0.4 0.3 0.1
v 0.4 0.4 0.1
v 0.5 0.1 0.1
v 0.5 0.2 0.1
v 0.6 0.4 0.1
v 0.6 0.5 0.1
v 0.7 0.1 0.1
v 0.7 0.5 0.1
v -2.2 0.2 0
v -2.2 0.3 0
v -1.8 0.1 0
v -1.8 0.2 0
v -1.8 0.3 0
v -1.8 0.4 0
v -1.7 0.1 0
v -1.7 0.2 0
v -1.7 0.3 0
v -1.7 0.4 0
v -1.7 0.5 0
v -1.6 0.1 0
v -1.6 0.2 0
v -1.6 0.3 0
v -1.6 0.4 0
v -1.6 0.5 0
v -1.5 0.1 0
v -1.5 0.2 0
v -1.5 0.3 0
v -1.5 0.4 0
v -1.4 0.1 0
v -1.4 0.2 0
v -1.4 0.3 0
v -1.4 0.4 0
v -1.3 0.1 0
v -1.3 0.2 0
v -1.3 0.3 0
v -1.3 0.4 0
v -1.2 0.1 0
v -1.2 0.2 0
v -1.2 0.3 0
v -1.2 0.4 0
v -1.1 0.1 0
v -1.1 0.2 0
v -1.1 0.3 0
v -1.1 0.4 0
v -1 0.3 0
v -1 0.4 0
v -1 0.5 0
v -0.9 0.4 0
v -0.9 0.5 0
v -0.4 0.3 0
v -0.4 0.4 0
v -0.0999999 -0.1 0
v -0.0999999 0.1 0
v 0.1 -0.1 0
v 0.1 0.1 0
v 0.3 0.3 0
v 0.3 0.4 0
v -2.2 0.2 -0.1
v -2.2 0.3 -0.1
v -1.8 0.1 -0.1
v -1.8 0.2 -0.1
v -1.8 0.3 -0.1
v -1.8 0.4 -0.1
v -1.7 0.1 -0.1
v -1.7 0.2 -0.1
v -1.7 0.3 -0.1
v -1.7 0.4 -0.1
v -1.7 0.5 -0.1
v -1.6 0.1 -0.1
v -1.6 0.2 -0.1
v -1.6 0.3 -0.1
v -1.6 0.4 -0.1
v -1.6 0.5 -0.1
v -1.5 0.1 -0.1
v -1.5 0.2 -0.1
v -1.5 0.3 -0.1
v -1.5 0.4 -0.1
v -1.4 0.1 -0.1
v -1.4 0.2 -0.1
v -1.4 0.3 -0.1
v -1.4 0.4 -0.1
v -1.3 0.1 -0.1
v -1.3 0.2 -0.1
v -1.3 0.3 -0.1
v -1.3 0.4 -0.1
v -1.2 0.1 -0.1
v -1.2 0.2 -0.1
v -1.2 0.3 -0.1
v -1.2 0.4 -0.1
v -1.1 0.1 -0.1
v -1.1 0.2 -0.1
v -1.1 0.3 -0.1
v -1.1 0.4 -0.1
v -1 0.3 -0.1
v -1 0.4 -0.1
v -1 0.5 -0.1
v -0.9 0.4 -0.1
v -0.9 0.5 -0.1
v -0.4 0.3 -0.1
v -0.4 0.4 -0.1
v -0.0999999 -0.1 -0.1
v -0.0999999 0.1 -0.1
v 0.1 -0.1 -0.1
v 0.1 0.1 -0.1
v 0.3 0.3 -0.1
v 0.3 0.4 -0.1
v -1.8 0.2 -0.2
v -1.8 0.3 -0.2
v -1.7 0.2 -0.2
v -1.7 0.3 -0.2
v -1.6 0.2 -0.2
v -1.6 0.3 -0.2
v -1.5 0.2 -0.2
v -1.5 0.3 -0.2
v -1.4 0.2 -0.2
v -1.4 0.3 -0.2
v -1.3 0.2 -0.2
v -1.3 0.3 -0.2
v -1.2 0.2 -0.2
v -1.2 0.3 -0.2
v -1.1 0.1 -0.2
v -1.1 0.2 -0.2
v -1.1 0.3 -0.2
v -1 -0.3 -0.2
v -1 0 -0.2
v -1 0.3 -0.2
v -1 0.4 -0.2
v -0.9 0 -0.2
v -0.9 0.1 -0.2
v -0.8 -0.3 -0.2
v -0.8 -0.1 -0.2
v -0.7 -0.1 -0.2
v -0.7 0.1 -0.2
v -0.4 0.3 -0.2
v -0.4 0.4 -0.2
v -0.0999999 -0.2 -0.2
v -0.0999999 -0.1 -0.2
v 0.1 -0.2 -0.2
v 0.1 -0.1 -0.2
v 0.3 0.1 -0.2
v 0.3 0.2 -0.2
v 0.4 0.3 -0.2
v 0.4 0.4 -0.2
v 0.5 0.1 -0.2
v 0.5 0.2 -0.2
v 0.6 0.4 -0.2
v 0.6 0.5 -0.2
v 0.7 0.1 -0.2
v 0.7 0.5 -0.2
v -1 -0.3 0.1
v -0.8 -0.3 0.1
v -1 -0.3 0
v -0.8 -0.3 0
v -1 -0.3 -0.1
v -0.8 -0.3 -0.1
v -1 -0.3 -0.2
v -0.8 -0.3 -0.2
v -0.0999999 -0.2 0.1
v 0.1 -0.2 0.1
v -0.0999999 -0.2 -0.2
v 0.1 -0.2 -0.2
v -0.8 -0.1 0.1
v -0.7 -0.1 0.1
v -0.8 -0.1 0
v -0.7 -0.1 0
v -0.8 -0.1 -0.1
v -0.7 -0.1 -0.1
v -0.8 -0.1 -0.2
v -0.7 -0.1 -0.2
v -1.1 0.1 0.1
v -0.9 0.1 0.1
v -0.7 0.1 0.1
v 0.3 0.1 0.1
v 0.5 0.1 0.1
v 0.7 0.1 0.1
v -1.8 0.1 0
v -1.7 0.1 0
v -1.6 0.1 0
v -1.5 0.1 0
v -1.4 0.1 0
v -1.3 0.1 0
v -1.2 0.1 0
v -1.1 0.1 0
v -0.9 0.1 0
v -0.7 0.1 0
v -0.0999999 0.1 0
v 0.1 0.1 0
v 0.3 0.1 0
v 0.5 0.1 0
v 0.7 0.1 0
v -1.8 0.1 -0.1
v -1.7 0.1 -0.1
v -1.6 0.1 -0.1
v -1.5 0.1 -0.1
v -1.4 0.1 -0.1
v -1.3 0.1 -0.1
v -1.2 0.1 -0.1
v -1.1 0.1 -0.1
v -0.9 0.1 -0.1
v -0.7 0.1 -0.1
v -0.0999999 0.1 -0.1
v 0.1 0.1 -0.1
v 0.3 0.1 -0.1
v 0.5 0.1 -0.1
v 0.7 0.1 -0.1
v -1.1 0.1 -0.2
v -0.9 0.1 -0.2
v -0.7 0.1 -0.2
v 0.3 0.1 -0.2
v 0.5 0.1 -0.2
v 0.7 0.1 -0.2
v -0.9 0.2 0.2
v -0.8 0.2 0.2
v -1.8 0.2 0.1
v -1.7 0.2 0.1
v -1.6 0.2 0.1
v -1.5 0.2 0.1
v -1.4 0.2 0.1
v -1.3 0.2 0.1
v -1.2 0.2 0.1
v -1.1 0.2 0.1
v -0.9 0.2 0.1
v -0.8 0.2 0.1
v 0.3 0.2 0.1
v 0.5 0.2 0.1
v -2.2 0.2 0
v -1.8 0.2 0
v -1.7 0.2 0
v -1.6 0.2 0
v -1.5 0.2 0
v -1.4 0.2 0
v -1.3 0.2 0
v -1.2 0.2 0
v -1.1 0.2 0
v 0.3 0.2 0
v 0.5 0.2 0
v -2.2 0.2 -0.1
v -1.8 0.2 -0.1
v -1.7 0.2 -0.1
v -1.6 0.2 -0.1
v -1.5 0.2 -0.1
v -1.4 0.2 -0.1
v -1.3 0.2 -0.1
v -1.2 0.2 -0.1
v -1.1 0.2 -0.1
v 0.3 0.2 -0.1
v 0.5 0.2 -0.1
v -1.8 0.2 -0.2
v -1.7 0.2 -0.2
v -1.6 0.2 -0.2
v -1.5 0.2 -0.2
v -1.4 0.2 -0.2
v -1.3 0.2 -0.2
v -1.2 0.2 -0.2
v -1.1 0.2 -0.2
v 0.3 0.2 -0.2
v 0.5 0.2 -0.2
v -0.0999999 -0.1 0.1
v 0.1 -0.1 0.1
v -0.0999999 -0.1 0
v 0.1 -0.1 0
v -0.0999999 -0.1 -0.1
v 0.1 -0.1 -0.1
v -0.0999999 -0.1 -0.2
v 0.1 -0.1 -0.2
v -1 0 0.1
v -0.9 0 0.1
v -1 0 0
v -0.9 0 0
v -1 0 -0.1
v -0.9 0 -0.1
v -1 0 -0.2
v -0.9 0 -0.2
v -0.9 0.3 0.2
v -0.8 0.3 0.2
v -1.8 0.3 0.1
v -1.7 0.3 0.1
v -1.6 0.3 0.1
v -1.5 0.3 0.1
v -1.4 0.3 0.1
v -1.3 0.3 0.1
v -1.2 0.3 0.1
v -1 0.3 0.1
v -0.9 0.3 0.1
v -0.8 0.3 0.1
v -0.4 0.3 0.1
v 0.4 0.3 0.1
v -2.2 0.3 0
v -1.8 0.3 0
v -1.7 0.3 0
v -1.6 0.3 0
v -1.5 0.3 0
v -1.4 0.3 0
v -1.3 0.3 0
v -1.2 0.3 0
v -1.1 0.3 0
v -1 0.3 0
v -0.4 0.3 0
v 0.3 0.3 0
v 0.4 0.3 0
v -2.2 0.3 -0.1
v -1.8 0.3 -0.1
v -1.7 0.3 -0.1
v -1.6 0.3 -0.1
v -1.5 0.3 -0.1
v -1.4 0.3 -0.1
v -1.3 0.3 -0.1
v -1.2 0.3 -0.1
v -1.1 0.3 -0.1
v -1 0.3 -0.1
v -0.4 0.3 -0.1
v 0.3 0.3 -0.1
v 0.4 0.3 -0.1
v -1.8 0.3 -0.2
v -1.7 0.3 -0.2
v -1.6 0.3 -0.2
v -1.5 0.3 -0.2
v -1.4 0.3 -0.2
v -1.3 0.3 -0.2
v -1.2 0.3 -0.2
v -1.1 0.3 -0.2
v -1 0.3 -0.2
v -0.4 0.3 -0.2
v 0.4 0.3 -0.2
v -1 0.4 0.1
v -0.4 0.4 0.1
v 0.4 0.4 0.1
v 0.6 0.4 0.1
v -1.8 0.4 0
v -1.7 0.4 0
v -1.6 0.4 0
v -1.5 0.4 0
v -1.4 0.4 0
v -1.3 0.4 0
v -1.2 0.4 0
v -1.1 0.4 0
v -1 0.4 0
v -0.9 0.4 0
v -0.4 0.4 0
v 0.3 0.4 0
v 0.4 0.4 0
v 0.6 0.4 0
v -1.8 0.4 -0.1
v -1.7 0.4 -0.1
v -1.6 0.4 -0.1
v -1.5 0.4 -0.1
v -1.4 0.4 -0.1
v -1.3 0.4 -0.1
v -1.2 0.4 -0.1
v -1.1 0.4 -0.1
v -1 0.4 -0.1
v -0.9 0.4 -0.1
v -0.4 0.4 -0.1
v 0.3 0.4 -0.1
v 0.4 0.4 -0.1
v 0.6 0.4 -0.1
v -1 0.4 -0.2
v -0.4 0.4 -0.2
v 0.4 0.4 -0.2
v 0.6 0.4 -0.2
v 0.6 0.5 0.1
v 0.7 0.5 0.1
v -1.7 0.5 0
v -1.6 0.5 0
v -1 0.5 0
v -0.9 0.5 0
v 0.6 0.5 0
v 0.7 0.5 0
v -1.7 0.5 -0.1
v -1.6 0.5 -0.1
v -1 0.5 -0.1
v -0.9 0.5 -0.1
v 0.6 0.5 -0.1
v 0.7 0.5 -0.1
v 0.6 0.5 -0.2
v 0.7 0.5 -0.2

# faces
f 3/1/1 2/1/1 1/1/1
f 4/1/1 2/1/1 3/1/1
f 8/4/1 6/4/1 5/4/1
f 9/4/1 6/4/1 8/4/1
f 11/1/1 8/1/1 7/1/1
f 12/1/1 8/1/1 11/1/1
f 13/4/1 10/4/1 9/4/1
f 14/4/1 10/4/1 13/4/1
f 15/4/1 13/4/1 12/4/1
f 16/4/1 13/4/1 15/4/1
f 19/4/1 18/4/1 17/4/1
f 20/4/1 18/4/1 19/4/1
f 25/1/1 22/1/1 21/1/1
f 26/1/1 22/1/1 25/1/1
f 27/1/1 24/1/1 23/1/1
f 28/1/1 24/1/1 27/1/1
f 33/2/1 30/2/1 29/2/1
f 34/4/1 31/4/1 30/4/1
f 34/2/1 30/2/1 33/2/1
f 35/2/1 32/2/1 31/2/1
f 35/4/1 31/4/1 34/4/1
f 36/2/1 32/2/1 35/2/1
f 41/1/1 38/1/1 37/1/1
f 42/1/1 38/1/1 41/1/1
f 43/1/1 40/1/1 39/1/1
f 44/1/1 40/1/1 43/1/1
f 45/4/1 43/4/1 42/4/1
f 46/4/1 43/4/1 45/4/1
f 51/2/1 48/2/1 47/2/1
f 52/4/1 49/4/1 48/4/1
f 52/2/1 48/2/1 51/2/1
f 53/2/1 50/2/1 49/2/1
f 53/4/1 49/4/1 52/4/1
f 54/2/1 50/2/1 53/2/1
f 57/2/1 56/2/1 55/2/1
f 58/2/1 56/2/1 57/2/1
f 61/1/1 60/1/1 59/1/1
f 62/1/1 60/1/1 61/1/1
f 63/1/1 60/1/1 62/1/1
f 64/1/1 60/1/1 63/1/1
f 65/1/1 63/1/1 62/1/1
f 66/1/1 63/1/1 65/1/1
f 71/1/1 68/1/1 67/1/1
f 72/4/1 69/4/1 68/4/1
f 72/1/1 68/1/1 71/1/1
f 73/1/1 70/1/1 69/1/1
f 73/4/1 69/4/1 72/4/1
f 74/1/1 70/1/1 73/1/1
f 79/1/1 76/1/1 75/1/1
f 80/4/1 77/4/1 76/4/1
f 80/1/1 76/1/1 79/1/1
f 81/1/1 78/1/1 77/1/1
f 81/4/1 77/4/1 80/4/1
f 82/1/1 78/1/1 81/1/1
f 87/1/1 84/1/1 83/1/1
f 88/4/1 85/4/1 84/4/1
f 88/1/1 84/1/1 87/1/1
f 89/1/1 86/1/1 85/1/1
f 89/4/1 85/4/1 88/4/1
f 90/1/1 86/1/1 89/1/1
f 91/4/2 92/4/2 93/4/2
f 93/4/2 92/4/2 94/4/2
f 95/4/2 96/4/2 97/4/2
f 97/4/2 96/4/2 98/4/2
f 99/2/2 100/2/2 103/2/2
f 100/4/2 101/4/2 104/4/2
f 103/2/2 100/2/2 104/2/2
f 101/2/2 102/2/2 105/2/2
f 104/4/2 101/4/2 105/4/2
f 105/2/2 102/2/2 106/2/2
f 107/2/2 108/2/2 109/2/2
f 109/2/2 108/2/2 110/2/2
f 111/2/2 112/2/2 115/2/2
f 112/4/2 113/4/2 116/4/2
f 115/2/2 112/2/2 116/2/2
f 113/2/2 114/2/2 117/2/2
f 116/4/2 113/4/2 117/4/2
f 117/2/2 114/2/2 118/2/2
f 119/1/2 120/1/2 123/1/2
f 123/1/2 120/1/2 124/1/2
f 121/1/2 122/1/2 125/1/2
f 125/1/2 122/1/2 126/1/2
f 127/1/2 128/1/2 129/1/2
f 129/1/2 128/1/2 130/1/2
f 130/1/2 128/1/2 131/1/2
f 131/1/2 128/1/2 132/1/2
f 130/1/2 131/1/2 133/1/2
f 133/1/2 131/1/2 134/1/2
f 135/1/2 136/1/2 139/1/2
f 136/4/2 137/4/2 140/4/2
f 139/1/2 136/1/2 140/1/2
f 137/1/2 138/1/2 141/1/2
f 140/4/2 137/4/2 141/4/2
f 141/1/2 138/1/2 142/1/2
f 143/4/2 144/4/2 145/4/2
f 145/4/2 144/4/2 146/4/2
f 147/1/2 148/1/2 151/1/2
f 148/4/2 149/4/2 152/4/2
f 151/1/2 148/1/2 152/1/2
f 149/1/2 150/1/2 153/1/2
f 152/4/2 149/4/2 153/4/2
f 153/1/2 150/1/2 154/1/2
f 157/2/3 156/2/3 155/2/3
f 158/2/3 156/2/3 157/2/3
f 161/1/3 160/1/3 159/1/3
f 162/1/3 160/1/3 161/1/3
f 163/3/3 162/3/3 161/3/3
f 164/3/3 162/3/3 163/3/3
f 165/1/3 164/1/3 163/1/3
f 166/1/3 164/1/3 165/1/3
f 167/3/3 166/3/3 165/3/3
f 168/3/3 166/3/3 167/3/3
f 169/1/3 168/1/3 167/1/3
f 170/1/3 168/1/3 169/1/3
f 171/3/3 170/3/3 169/3/3
f 172/3/3 170/3/3 171/3/3
f 174/1/3 172/1/3 171/1/3
f 177/1/3 172/1/3 174/1/3
f 177/1/3 174/1/3 173/1/3
f 179/2/3 176/2/3 175/2/3
f 180/1/3 177/1/3 173/1/3
f 180/1/3 178/1/3 177/1/3
f 181/1/3 178/1/3 180/1/3
f 182/1/3 178/1/3 181/1/3
f 183/2/3 179/2/3 175/2/3
f 183/2/3 180/2/3 179/2/3
f 184/2/3 180/2/3 183/2/3
f 185/1/3 181/1/3 180/1/3
f 186/1/3 178/1/3 182/1/3
f 187/2/3 180/2/3 184/2/3
f 188/1/3 185/1/3 180/1/3
f 188/2/3 180/2/3 187/2/3
f 189/3/3 186/3/3 185/3/3
f 189/1/3 185/1/3 188/1/3
f 190/1/3 178/1/3 186/1/3
f 190/3/3 186/3/3 189/3/3
f 191/1/3 190/1/3 189/1/3
f 191/1/3 178/1/3 190/1/3
f 192/1/3 178/1/3 191/1/3
f 195/1/3 194/1/3 193/1/3
f 196/1/3 194/1/3 195/1/3
f 197/1/3 189/1/3 188/1/3
f 197/1/3 191/1/3 189/1/3
f 198/1/3 191/1/3 197/1/3
f 199/1/3 191/1/3 198/1/3
f 202/1/3 199/1/3 198/1/3
f 202/1/3 200/1/3 199/1/3
f 203/1/3 200/1/3 202/1/3
f 203/1/3 202/1/3 201/1/3
f 205/1/3 203/1/3 201/1/3
f 205/1/3 204/1/3 203/1/3
f 206/1/3 204/1/3 205/1/3
f 210/1/3 208/1/3 207/1/3
f 211/1/3 208/1/3 210/1/3
f 213/4/3 210/4/3 209/4/3
f 214/4/3 210/4/3 213/4/3
f 215/4/3 212/4/3 211/4/3
f 216/4/3 212/4/3 215/4/3
f 218/1/3 214/1/3 213/1/3
f 219/1/3 214/1/3 218/1/3
f 220/1/3 216/1/3 215/1/3
f 221/4/3 217/4/3 216/4/3
f 221/1/3 216/1/3 220/1/3
f 222/4/3 217/4/3 221/4/3
f 223/4/3 219/4/3 218/4/3
f 224/4/3 219/4/3 223/4/3
f 225/4/3 221/4/3 220/4/3
f 226/4/3 221/4/3 225/4/3
f 227/1/3 224/1/3 223/1/3
f 228/1/3 224/1/3 227/1/3
f 229/1/3 226/1/3 225/1/3
f 230/1/3 226/1/3 229/1/3
f 231/4/3 228/4/3 227/4/3
f 232/4/3 228/4/3 231/4/3
f 233/4/3 230/4/3 229/4/3
f 234/4/3 230/4/3 233/4/3
f 235/1/3 232/1/3 231/1/3
f 236/1/3 232/1/3 235/1/3
f 237/1/3 234/1/3 233/1/3
f 238/1/3 234/1/3 237/1/3
f 239/4/3 236/4/3 235/4/3
f 240/4/3 236/4/3 239/4/3
f 241/4/3 238/4/3 237/4/3
f 242/4/3 238/4/3 241/4/3
f 243/1/3 242/1/3 241/1/3
f 244/1/3 242/1/3 243/1/3
f 246/4/3 245/4/3 244/4/3
f 247/4/3 245/4/3 246/4/3
f 252/1/3 251/1/3 250/1/3
f 253/1/3 251/1/3 252/1/3
f 254/4/3 249/4/3 248/4/3
f 255/4/3 249/4/3 254/4/3
f 256/1/4 257/1/4 259/1/4
f 259/1/4 257/1/4 260/1/4
f 258/4/4 259/4/4 262/4/4
f 262/4/4 259/4/4 263/4/4
f 260/4/4 261/4/4 264/4/4
f 264/4/4 261/4/4 265/4/4
f 262/1/4 263/1/4 267/1/4
f 267/1/4 263/1/4 268/1/4
f 264/1/4 265/1/4 269/1/4
f 265/4/4 266/4/4 270/4/4
f 269/1/4 265/1/4 270/1/4
f 270/4/4 266/4/4 271/4/4
f 267/4/4 268/4/4 272/4/4
f 272/4/4 268/4/4 273/4/4
f 269/4/4 270/4/4 274/4/4
f 274/4/4 270/4/4 275/4/4
f 272/1/4 273/1/4 276/1/4
f 276/1/4 273/1/4 277/1/4
f 274/1/4 275/1/4 278/1/4
f 278/1/4 275/1/4 279/1/4
f 276/4/4 277/4/4 280/4/4
f 280/4/4 277/4/4 281/4/4
f 278/4/4 279/4/4 282/4/4
f 282/4/4 279/4/4 283/4/4
f 280/1/4 281/1/4 284/1/4
f 284/1/4 281/1/4 285/1/4
f 282/1/4 283/1/4 286/1/4
f 286/1/4 283/1/4 287/1/4
f 284/4/4 285/4/4 288/4/4
f 288/4/4 285/4/4 289/4/4
f 286/4/4 287/4/4 290/4/4
f 290/4/4 287/4/4 291/4/4
f 290/1/4 291/1/4 292/1/4
f 292/1/4 291/1/4 293/1/4
f 293/4/4 294/4/4 295/4/4
f 295/4/4 294/4/4 296/4/4
f 299/1/4 300/1/4 301/1/4
f 301/1/4 300/1/4 302/1/4
f 297/4/4 298/4/4 303/4/4
f 303/4/4 298/4/4 304/4/4
f 305/4/4 306/4/4 307/4/4
f 307/4/4 306/4/4 308/4/4
f 307/3/4 308/3/4 309/3/4
f 309/3/4 308/3/4 310/3/4
f 309/4/4 310/4/4 311/4/4
f 311/4/4 310/4/4 312/4/4
f 311/3/4 312/3/4 313/3/4
f 313/3/4 312/3/4 314/3/4
f 313/4/4 314/4/4 315/4/4
f 315/4/4 314/4/4 316/4/4
f 315/3/4 316/3/4 317/3/4
f 317/3/4 316/3/4 318/3/4
f 317/4/4 318/4/4 320/4/4
f 320/4/4 318/4/4 321/4/4
f 319/1/4 320/1/4 324/1/4
f 320/1/4 321/1/4 324/1/4
f 322/2/4 323/2/4 326/2/4
f 319/1/4 324/1/4 327/1/4
f 324/1/4 325/1/4 327/1/4
f 322/2/4 326/2/4 328/2/4
f 326/2/4 327/2/4 328/2/4
f 328/2/4 327/2/4 329/2/4
f 329/2/4 327/2/4 330/2/4
f 327/1/4 325/1/4 331/1/4
f 330/2/4 327/2/4 331/2/4
f 331/1/4 325/1/4 332/1/4
f 332/1/4 325/1/4 333/1/4
f 334/1/4 335/1/4 336/1/4
f 336/1/4 335/1/4 337/1/4
f 331/1/4 332/1/4 338/1/4
f 338/1/4 332/1/4 339/1/4
f 339/1/4 332/1/4 340/1/4
f 339/1/4 340/1/4 343/1/4
f 340/1/4 341/1/4 343/1/4
f 343/1/4 341/1/4 344/1/4
f 342/1/4 343/1/4 344/1/4
f 342/1/4 344/1/4 346/1/4
f 344/1/4 345/1/4 346/1/4
f 346/1/4 345/1/4 347/1/4
f 350/2/5 349/2/5 348/2/5
f 351/2/5 349/2/5 350/2/5
f 352/4/5 351/4/5 350/4/5
f 353/4/5 351/4/5 352/4/5
f 354/2/5 353/2/5 352/2/5
f 355/2/5 353/2/5 354/2/5
f 358/1/5 357/1/5 356/1/5
f 359/1/5 357/1/5 358/1/5
f 362/2/5 361/2/5 360/2/5
f 363/2/5 361/2/5 362/2/5
f 364/4/5 363/4/5 362/4/5
f 365/4/5 363/4/5 364/4/5
f 366/2/5 365/2/5 364/2/5
f 367/2/5 365/2/5 366/2/5
f 381/1/5 369/1/5 368/1/5
f 382/1/5 369/1/5 381/1/5
f 383/1/5 371/1/5 370/1/5
f 384/1/5 371/1/5 383/1/5
f 385/1/5 371/1/5 384/1/5
f 386/1/5 371/1/5 385/1/5
f 387/1/5 373/1/5 372/1/5
f 388/1/5 373/1/5 387/1/5
f 389/4/5 375/4/5 374/4/5
f 390/1/5 376/1/5 375/1/5
f 390/4/5 375/4/5 389/4/5
f 391/4/5 377/4/5 376/4/5
f 391/1/5 376/1/5 390/1/5
f 392/1/5 378/1/5 377/1/5
f 392/4/5 377/4/5 391/4/5
f 393/4/5 379/4/5 378/4/5
f 393/1/5 378/1/5 392/1/5
f 394/1/5 380/1/5 379/1/5
f 394/4/5 379/4/5 393/4/5
f 395/4/5 382/4/5 381/4/5
f 395/1/5 380/1/5 394/1/5
f 395/4/5 381/4/5 380/4/5
f 396/4/5 382/4/5 395/4/5
f 397/4/5 382/4/5 396/4/5
f 398/4/5 384/4/5 383/4/5
f 399/4/5 384/4/5 398/4/5
f 400/4/5 386/4/5 385/4/5
f 401/4/5 386/4/5 400/4/5
f 402/4/5 388/4/5 387/4/5
f 403/4/5 388/4/5 402/4/5
f 404/1/5 397/1/5 396/1/5
f 405/1/5 397/1/5 404/1/5
f 406/1/5 399/1/5 398/1/5
f 406/1/5 400/1/5 399/1/5
f 406/1/5 401/1/5 400/1/5
f 407/1/5 401/1/5 406/1/5
f 408/1/5 403/1/5 402/1/5
f 409/1/5 403/1/5 408/1/5
f 420/2/5 411/2/5 410/2/5
f 421/2/5 411/2/5 420/2/5
f 425/1/5 413/1/5 412/1/5
f 426/3/5 414/3/5 413/3/5
f 426/1/5 413/1/5 425/1/5
f 427/1/5 415/1/5 414/1/5
f 427/3/5 414/3/5 426/3/5
f 428/3/5 416/3/5 415/3/5
f 428/1/5 415/1/5 427/1/5
f 429/1/5 417/1/5 416/1/5
f 429/3/5 416/3/5 428/3/5
f 430/3/5 418/3/5 417/3/5
f 430/1/5 417/1/5 429/1/5
f 431/1/5 419/1/5 418/1/5
f 431/3/5 418/3/5 430/3/5
f 432/1/5 419/1/5 431/1/5
f 433/1/5 423/1/5 422/1/5
f 434/1/5 423/1/5 433/1/5
f 435/1/5 425/1/5 424/1/5
f 436/1/5 425/1/5 435/1/5
f 444/4/5 434/4/5 433/4/5
f 445/4/5 434/4/5 444/4/5
f 446/4/5 437/4/5 436/4/5
f 447/3/5 438/3/5 437/3/5
f 447/4/5 437/4/5 446/4/5
f 448/4/5 439/4/5 438/4/5
f 448/3/5 438/3/5 447/3/5
f 449/3/5 440/3/5 439/3/5
f 449/4/5 439/4/5 448/4/5
f 450/4/5 441/4/5 440/4/5
f 450/3/5 440/3/5 449/3/5
f 451/3/5 442/3/5 441/3/5
f 451/4/5 441/4/5 450/4/5
f 452/4/5 443/4/5 442/4/5
f 452/3/5 442/3/5 451/3/5
f 453/4/5 443/4/5 452/4/5
f 454/1/5 445/1/5 444/1/5
f 455/1/5 445/1/5 454/1/5
f 456/1/6 457/1/6 458/1/6
f 458/1/6 457/1/6 459/1/6
f 460/1/6 461/1/6 462/1/6
f 462/1/6 461/1/6 463/1/6
f 464/2/6 465/2/6 466/2/6
f 466/2/6 465/2/6 467/2/6
f 466/4/6 467/4/6 468/4/6
f 468/4/6 467/4/6 469/4/6
f 468/2/6 469/2/6 470/2/6
f 470/2/6 469/2/6 471/2/6
f 472/2/6 473/2/6 482/2/6
f 482/2/6 473/2/6 483/2/6
f 474/1/6 475/1/6 487/1/6
f 475/3/6 476/3/6 488/3/6
f 487/1/6 475/1/6 488/1/6
f 476/1/6 477/1/6 489/1/6
f 488/3/6 476/3/6 489/3/6
f 477/3/6 478/3/6 490/3/6
f 489/1/6 477/1/6 490/1/6
f 478/1/6 479/1/6 491/1/6
f 490/3/6 478/3/6 491/3/6
f 479/3/6 480/3/6 492/3/6
f 491/1/6 479/1/6 492/1/6
f 480/1/6 481/1/6 493/1/6
f 492/3/6 480/3/6 493/3/6
f 493/1/6 481/1/6 494/1/6
f 494/1/6 481/1/6 495/1/6
f 484/1/6 485/1/6 496/1/6
f 496/1/6 485/1/6 497/1/6
f 497/1/6 485/1/6 498/1/6
f 486/1/6 487/1/6 499/1/6
f 499/1/6 487/1/6 500/1/6
f 497/4/6 498/4/6 510/4/6
f 510/4/6 498/4/6 511/4/6
f 500/4/6 501/4/6 512/4/6
f 501/3/6 502/3/6 513/3/6
f 512/4/6 501/4/6 513/4/6
f 502/4/6 503/4/6 514/4/6
f 513/3/6 502/3/6 514/3/6
f 503/3/6 504/3/6 515/3/6
f 514/4/6 503/4/6 515/4/6
f 504/4/6 505/4/6 516/4/6
f 515/3/6 504/3/6 516/3/6
f 505/3/6 506/3/6 517/3/6
f 516/4/6 505/4/6 517/4/6
f 506/4/6 507/4/6 518/4/6
f 517/3/6 506/3/6 518/3/6
f 507/1/6 508/1/6 519/1/6
f 518/4/6 507/4/6 519/4/6
f 519/1/6 508/1/6 520/1/6
f 510/1/6 511/1/6 521/1/6
f 509/1/6 510/1/6 521/1/6
f 521/1/6 511/1/6 522/1/6
f 523/1/6 524/1/6 535/1/6
f 535/1/6 524/1/6 536/1/6
f 536/1/6 524/1/6 537/1/6
f 525/1/6 526/1/6 539/1/6
f 539/1/6 526/1/6 540/1/6
f 527/4/6 528/4/6 541/4/6
f 541/4/6 528/4/6 542/4/6
f 529/4/6 530/4/6 543/4/6
f 530/1/6 531/1/6 544/1/6
f 543/4/6 530/4/6 544/4/6
f 531/4/6 532/4/6 545/4/6
f 544/1/6 531/1/6 545/1/6
f 532/1/6 533/1/6 546/1/6
f 545/4/6 532/4/6 546/4/6
f 533/4/6 534/4/6 547/4/6
f 546/1/6 533/1/6 547/1/6
f 534/1/6 535/1/6 548/1/6
f 547/4/6 534/4/6 548/4/6
f 548/1/6 535/1/6 549/1/6
f 536/1/6 537/1/6 550/1/6
f 537/4/6 538/4/6 551/4/6
f 550/1/6 537/1/6 551/1/6
f 551/4/6 538/4/6 552/4/6
f 539/4/6 540/4/6 553/4/6
f 553/4/6 540/4/6 554/4/6
f 549/1/6 550/1/6 555/1/6
f 550/1/6 551/1/6 555/1/6
f 555/1/6 551/1/6 556/1/6
f 553/1/6 554/1/6 557/1/6
f 557/1/6 554/1/6 558/1/6
f 559/1/6 560/1/6 565/1/6
f 565/1/6 560/1/6 566/1/6
f 561/4/6 562/4/6 567/4/6
f 567/4/6 562/4/6 568/4/6
f 563/4/6 564/4/6 569/4/6
f 569/4/6 564/4/6 570/4/6
f 565/4/6 566/4/6 571/4/6
f 571/4/6 566/4/6 572/4/6
f 571/1/6 572/1/6 573/1/6
f 573/1/6 572/1/6 574/1/6
