# MagicaVoxel @ Ephtracy

# group
o 

# material
mtllib TorsoBlue.mtl
usemtl palette

# normals
vn -1 0 0
vn 1 0 0
vn 0 0 1
vn 0 0 -1
vn 0 -1 0
vn 0 1 0

# texcoords
vt 0.0332031 0.5
vt 0.537109 0.5
vt 0.935547 0.5
vt 0.943359 0.5
vt 0.982422 0.5

# verts
v -0.4 0.4 0.2
v -0.4 0.4 -0.2
v -0.4 0.6 0.2
v -0.4 0.6 0.1
v -0.4 0.6 -0.1
v -0.4 0.6 -0.2
v -0.4 0.7 0.1
v -0.4 0.7 -0.1
v -0.3 0 0.2
v -0.3 0 -0.2
v -0.3 0.1 0.2
v -0.3 0.1 -0.2
v -0.3 0.2 0.2
v -0.3 0.2 -0.2
v -0.3 0.4 0.2
v -0.3 0.4 -0.2
v -0.3 0.6 0.2
v -0.3 0.6 0.1
v -0.3 0.6 -0.1
v -0.3 0.6 -0.2
v -0.3 0.7 0.2
v -0.3 0.7 0.1
v -0.3 0.7 -0.1
v -0.3 0.7 -0.2
v -0.1 0.7 0.1
v -0.1 0.7 -0.1
v -0.1 0.8 0.1
v -0.1 0.8 -0.1
v 0.1 0.7 0.1
v 0.1 0.7 -0.1
v 0.1 0.8 0.1
v 0.1 0.8 -0.1
v 0.3 0 0.2
v 0.3 0 -0.2
v 0.3 0.1 0.2
v 0.3 0.1 -0.2
v 0.3 0.2 0.2
v 0.3 0.2 -0.2
v 0.3 0.4 0.2
v 0.3 0.4 -0.2
v 0.3 0.6 0.2
v 0.3 0.6 0.1
v 0.3 0.6 -0.1
v 0.3 0.6 -0.2
v 0.3 0.7 0.2
v 0.3 0.7 0.1
v 0.3 0.7 -0.1
v 0.3 0.7 -0.2
v 0.4 0.4 0.2
v 0.4 0.4 -0.2
v 0.4 0.6 0.2
v 0.4 0.6 0.1
v 0.4 0.6 -0.1
v 0.4 0.6 -0.2
v 0.4 0.7 0.1
v 0.4 0.7 -0.1
v -0.4 0.4 0.2
v -0.4 0.6 0.2
v -0.3 0 0.2
v -0.3 0.1 0.2
v -0.3 0.2 0.2
v -0.3 0.4 0.2
v -0.3 0.6 0.2
v -0.3 0.7 0.2
v -0.1 0 0.2
v -0.1 0.1 0.2
v -0.1 0.2 0.2
v -0.1 0.7 0.2
v 0.1 0 0.2
v 0.1 0.1 0.2
v 0.1 0.2 0.2
v 0.1 0.7 0.2
v 0.3 0 0.2
v 0.3 0.1 0.2
v 0.3 0.2 0.2
v 0.3 0.4 0.2
v 0.3 0.6 0.2
v 0.3 0.7 0.2
v 0.4 0.4 0.2
v 0.4 0.6 0.2
v -0.4 0.6 0.1
v -0.4 0.7 0.1
v -0.3 0.6 0.1
v -0.3 0.7 0.1
v -0.1 0.7 0.1
v -0.1 0.8 0.1
v 0.1 0.7 0.1
v 0.1 0.8 0.1
v 0.3 0.6 0.1
v 0.3 0.7 0.1
v 0.4 0.6 0.1
v 0.4 0.7 0.1
v -0.4 0.6 -0.1
v -0.4 0.7 -0.1
v -0.3 0.6 -0.1
v -0.3 0.7 -0.1
v -0.1 0.7 -0.1
v -0.1 0.8 -0.1
v 0.1 0.7 -0.1
v 0.1 0.8 -0.1
v 0.3 0.6 -0.1
v 0.3 0.7 -0.1
v 0.4 0.6 -0.1
v 0.4 0.7 -0.1
v -0.4 0.4 -0.2
v -0.4 0.6 -0.2
v -0.3 0 -0.2
v -0.3 0.1 -0.2
v -0.3 0.2 -0.2
v -0.3 0.4 -0.2
v -0.3 0.6 -0.2
v -0.3 0.7 -0.2
v 0.3 0 -0.2
v 0.3 0.1 -0.2
v 0.3 0.2 -0.2
v 0.3 0.4 -0.2
v 0.3 0.6 -0.2
v 0.3 0.7 -0.2
v 0.4 0.4 -0.2
v 0.4 0.6 -0.2
v -0.3 0 0.2
v -0.1 0 0.2
v 0.1 0 0.2
v 0.3 0 0.2
v -0.1 0 0.1
v 0.1 0 0.1
v -0.3 0 -0.2
v 0.3 0 -0.2
v -0.4 0.4 0.2
v -0.3 0.4 0.2
v 0.3 0.4 0.2
v 0.4 0.4 0.2
v -0.4 0.4 -0.2
v -0.3 0.4 -0.2
v 0.3 0.4 -0.2
v 0.4 0.4 -0.2
v -0.4 0.6 0.2
v -0.3 0.6 0.2
v 0.3 0.6 0.2
v 0.4 0.6 0.2
v -0.4 0.6 0.1
v -0.3 0.6 0.1
v 0.3 0.6 0.1
v 0.4 0.6 0.1
v -0.4 0.6 -0.1
v -0.3 0.6 -0.1
v 0.3 0.6 -0.1
v 0.4 0.6 -0.1
v -0.4 0.6 -0.2
v -0.3 0.6 -0.2
v 0.3 0.6 -0.2
v 0.4 0.6 -0.2
v -0.3 0.7 0.2
v -0.1 0.7 0.2
v 0.1 0.7 0.2
v 0.3 0.7 0.2
v -0.4 0.7 0.1
v -0.3 0.7 0.1
v -0.1 0.7 0.1
v 0.1 0.7 0.1
v 0.3 0.7 0.1
v 0.4 0.7 0.1
v -0.4 0.7 -0.1
v -0.3 0.7 -0.1
v -0.1 0.7 -0.1
v 0.1 0.7 -0.1
v 0.3 0.7 -0.1
v 0.4 0.7 -0.1
v -0.3 0.7 -0.2
v 0.3 0.7 -0.2
v -0.1 0.8 0.1
v 0.1 0.8 0.1
v -0.1 0.8 -0.1
v 0.1 0.8 -0.1

# faces
f 3/4/1 2/4/1 1/4/1
f 4/4/1 2/4/1 3/4/1
f 5/4/1 2/4/1 4/4/1
f 6/4/1 2/4/1 5/4/1
f 7/4/1 5/4/1 4/4/1
f 8/4/1 5/4/1 7/4/1
f 11/4/1 10/4/1 9/4/1
f 12/4/1 10/4/1 11/4/1
f 13/2/1 12/2/1 11/2/1
f 14/2/1 12/2/1 13/2/1
f 15/4/1 14/4/1 13/4/1
f 16/4/1 14/4/1 15/4/1
f 21/4/1 18/4/1 17/4/1
f 22/4/1 18/4/1 21/4/1
f 23/4/1 20/4/1 19/4/1
f 24/4/1 20/4/1 23/4/1
f 27/1/1 26/1/1 25/1/1
f 28/1/1 26/1/1 27/1/1
f 29/1/2 30/1/2 31/1/2
f 31/1/2 30/1/2 32/1/2
f 33/4/2 34/4/2 35/4/2
f 35/4/2 34/4/2 36/4/2
f 35/2/2 36/2/2 37/2/2
f 37/2/2 36/2/2 38/2/2
f 37/4/2 38/4/2 39/4/2
f 39/4/2 38/4/2 40/4/2
f 41/4/2 42/4/2 45/4/2
f 45/4/2 42/4/2 46/4/2
f 43/4/2 44/4/2 47/4/2
f 47/4/2 44/4/2 48/4/2
f 49/4/2 50/4/2 51/4/2
f 51/4/2 50/4/2 52/4/2
f 52/4/2 50/4/2 53/4/2
f 53/4/2 50/4/2 54/4/2
f 52/4/2 53/4/2 55/4/2
f 55/4/2 53/4/2 56/4/2
f 62/4/3 58/4/3 57/4/3
f 63/4/3 58/4/3 62/4/3
f 65/4/3 60/4/3 59/4/3
f 66/2/3 61/2/3 60/2/3
f 66/4/3 60/4/3 65/4/3
f 67/4/3 64/4/3 63/4/3
f 67/2/3 61/2/3 66/2/3
f 67/4/3 62/4/3 61/4/3
f 67/4/3 63/4/3 62/4/3
f 68/4/3 64/4/3 67/4/3
f 69/3/3 66/3/3 65/3/3
f 70/5/3 67/5/3 66/5/3
f 70/3/3 66/3/3 69/3/3
f 71/3/3 68/3/3 67/3/3
f 71/5/3 67/5/3 70/5/3
f 72/3/3 68/3/3 71/3/3
f 73/4/3 70/4/3 69/4/3
f 74/2/3 71/2/3 70/2/3
f 74/4/3 70/4/3 73/4/3
f 75/4/3 72/4/3 71/4/3
f 75/2/3 71/2/3 74/2/3
f 76/4/3 72/4/3 75/4/3
f 77/4/3 72/4/3 76/4/3
f 78/4/3 72/4/3 77/4/3
f 79/4/3 77/4/3 76/4/3
f 80/4/3 77/4/3 79/4/3
f 83/4/3 82/4/3 81/4/3
f 84/4/3 82/4/3 83/4/3
f 87/1/3 86/1/3 85/1/3
f 88/1/3 86/1/3 87/1/3
f 91/4/3 90/4/3 89/4/3
f 92/4/3 90/4/3 91/4/3
f 93/4/4 94/4/4 95/4/4
f 95/4/4 94/4/4 96/4/4
f 97/1/4 98/1/4 99/1/4
f 99/1/4 98/1/4 100/1/4
f 101/4/4 102/4/4 103/4/4
f 103/4/4 102/4/4 104/4/4
f 105/4/4 106/4/4 110/4/4
f 110/4/4 106/4/4 111/4/4
f 107/4/4 108/4/4 113/4/4
f 108/2/4 109/2/4 114/2/4
f 113/4/4 108/4/4 114/4/4
f 111/4/4 112/4/4 115/4/4
f 114/2/4 109/2/4 115/2/4
f 109/4/4 110/4/4 115/4/4
f 110/4/4 111/4/4 115/4/4
f 115/4/4 112/4/4 116/4/4
f 116/4/4 112/4/4 117/4/4
f 117/4/4 112/4/4 118/4/4
f 116/4/4 117/4/4 119/4/4
f 119/4/4 117/4/4 120/4/4
f 125/4/5 122/4/5 121/4/5
f 125/3/5 123/3/5 122/3/5
f 126/4/5 124/4/5 123/4/5
f 126/3/5 123/3/5 125/3/5
f 127/4/5 125/4/5 121/4/5
f 127/4/5 126/4/5 125/4/5
f 128/4/5 124/4/5 126/4/5
f 128/4/5 126/4/5 127/4/5
f 133/4/5 130/4/5 129/4/5
f 134/4/5 130/4/5 133/4/5
f 135/4/5 132/4/5 131/4/5
f 136/4/5 132/4/5 135/4/5
f 137/4/6 138/4/6 141/4/6
f 141/4/6 138/4/6 142/4/6
f 139/4/6 140/4/6 143/4/6
f 143/4/6 140/4/6 144/4/6
f 145/4/6 146/4/6 149/4/6
f 149/4/6 146/4/6 150/4/6
f 147/4/6 148/4/6 151/4/6
f 151/4/6 148/4/6 152/4/6
f 153/4/6 154/4/6 158/4/6
f 154/3/6 155/3/6 159/3/6
f 158/4/6 154/4/6 159/4/6
f 155/4/6 156/4/6 160/4/6
f 159/3/6 155/3/6 160/3/6
f 160/4/6 156/4/6 161/4/6
f 158/4/6 159/4/6 163/4/6
f 157/4/6 158/4/6 163/4/6
f 163/4/6 159/4/6 164/4/6
f 164/4/6 159/4/6 165/4/6
f 161/4/6 162/4/6 166/4/6
f 160/4/6 161/4/6 166/4/6
f 166/4/6 162/4/6 167/4/6
f 167/4/6 162/4/6 168/4/6
f 164/4/6 165/4/6 169/4/6
f 166/4/6 167/4/6 169/4/6
f 165/4/6 166/4/6 169/4/6
f 169/4/6 167/4/6 170/4/6
f 171/1/6 172/1/6 173/1/6
f 173/1/6 172/1/6 174/1/6
